<?xml version="1.0" encoding="utf-8"?>
<!-- Generator: Adobe Illustrator 18.0.0, SVG Export Plug-In . SVG Version: 6.00 Build 0)  -->
<!DOCTYPE svg PUBLIC "-//W3C//DTD SVG 1.1//EN" "http://www.w3.org/Graphics/SVG/1.1/DTD/svg11.dtd">
<svg version="1.1" id="Layer_1" xmlns="http://www.w3.org/2000/svg" xmlns:xlink="http://www.w3.org/1999/xlink" x="0px" y="0px"
	 viewBox="0 0 259.5 203.1" enable-background="new 0 0 259.5 203.1" xml:space="preserve">
<linearGradient id="SVGID_1_" gradientUnits="userSpaceOnUse" x1="-14.4001" y1="2739.2991" x2="11.8899" y2="2739.2991" gradientTransform="matrix(4.898 0 0 -4.898 70.531 13602.4023)">
	<stop  offset="0" style="stop-color:#4CAF50"/>
	<stop  offset="0.4416" style="stop-color:#4DAC50"/>
	<stop  offset="0.7071" style="stop-color:#4FA452"/>
	<stop  offset="0.9254" style="stop-color:#529655"/>
	<stop  offset="1" style="stop-color:#548F56"/>
</linearGradient>
<path fill="url(#SVGID_1_)" d="M128.8,191.2v1.7c0,0.7-0.6,1.3-1.3,1.3H1.3c-0.7,0-1.3-0.6-1.3-1.3v-6.1c0-0.7,0.6-1.3,1.3-1.3H3
	c0.7,0,1.3,0.6,1.3,1.3v1.7c0,0.7,0.6,1.3,1.3,1.3h23.2c0.7,0,1.3-0.6,1.3-1.3V178c0-0.7,0.6-1.3,1.3-1.3h1.7c0.7,0,1.3,0.6,1.3,1.3
	v10.5c0,0.7,0.6,1.3,1.3,1.3h29.6c0.7,0,1.3-0.6,1.3-1.3v-1.7c0-0.7,0.6-1.3,1.3-1.3h1.7c0.7,0,1.3,0.6,1.3,1.3v1.7
	c0,0.7,0.6,1.3,1.3,1.3H102c0.7,0,1.3-0.6,1.3-1.3v-1.7c0-0.7,0.6-1.3,1.3-1.3h1.7c0.7,0,1.3,0.6,1.3,1.3v1.7c0,0.7,0.6,1.3,1.3,1.3
	h18.9C128.2,189.9,128.8,190.5,128.8,191.2z"/>
<linearGradient id="SVGID_2_" gradientUnits="userSpaceOnUse" x1="-12.5383" y1="2740.6123" x2="-9.873" y2="2740.6123" gradientTransform="matrix(4.898 0 0 -4.898 70.531 13602.4023)">
	<stop  offset="0" style="stop-color:#4CAF50"/>
	<stop  offset="0.4416" style="stop-color:#4DAC50"/>
	<stop  offset="0.7071" style="stop-color:#4FA452"/>
	<stop  offset="0.9254" style="stop-color:#529655"/>
	<stop  offset="1" style="stop-color:#548F56"/>
</linearGradient>
<path fill="url(#SVGID_2_)" d="M17.8,178.2v1.7c0,0.7,0.6,1.3,1.3,1.3h1.7c0.7,0,1.3,0.6,1.3,1.3v1.7c0,0.7-0.6,1.3-1.3,1.3H10.3
	c-0.7,0-1.3-0.6-1.3-1.3v-1.7c0-0.7,0.6-1.3,1.3-1.3H12c0.7,0,1.3-0.6,1.3-1.3v-6.1c0-0.7,0.6-1.3,1.3-1.3h6.1
	c0.7,0,1.3,0.6,1.3,1.3v1.7c0,0.7-0.6,1.3-1.3,1.3h-1.7C18.4,176.9,17.8,177.5,17.8,178.2z"/>
<linearGradient id="SVGID_3_" gradientUnits="userSpaceOnUse" x1="6.5632" y1="2736.157" x2="7.4516" y2="2736.157" gradientTransform="matrix(4.898 0 0 -4.898 70.531 13602.4023)">
	<stop  offset="0" style="stop-color:#4CAF50"/>
	<stop  offset="0.4416" style="stop-color:#4DAC50"/>
	<stop  offset="0.7071" style="stop-color:#4FA452"/>
	<stop  offset="0.9254" style="stop-color:#529655"/>
	<stop  offset="1" style="stop-color:#548F56"/>
</linearGradient>
<path fill="url(#SVGID_3_)" d="M103.5,198.7h2.6c0.5,0,0.8,0.4,0.8,0.8v2.6c0,0.5-0.4,0.8-0.8,0.8h-2.6c-0.5,0-0.8-0.4-0.8-0.8v-2.6
	C102.7,199,103,198.7,103.5,198.7z"/>
<linearGradient id="SVGID_4_" gradientUnits="userSpaceOnUse" x1="-1.8773" y1="2736.1448" x2="-0.9889" y2="2736.1448" gradientTransform="matrix(4.898 0 0 -4.898 70.531 13602.4023)">
	<stop  offset="0" style="stop-color:#4CAF50"/>
	<stop  offset="0.4416" style="stop-color:#4DAC50"/>
	<stop  offset="0.7071" style="stop-color:#4FA452"/>
	<stop  offset="0.9254" style="stop-color:#529655"/>
	<stop  offset="1" style="stop-color:#548F56"/>
</linearGradient>
<path fill="url(#SVGID_4_)" d="M62.4,198.7h2.3c0.6,0,1.1,0.5,1.1,1.1v2.3c0,0.6-0.5,1.1-1.1,1.1h-2.3c-0.6,0-1.1-0.5-1.1-1.1v-2.4
	C61.3,199,61.8,198.7,62.4,198.7z"/>
<linearGradient id="SVGID_5_" gradientUnits="userSpaceOnUse" x1="-0.1005" y1="2736.1448" x2="0.7879" y2="2736.1448" gradientTransform="matrix(4.898 0 0 -4.898 70.531 13602.4023)">
	<stop  offset="0" style="stop-color:#4CAF50"/>
	<stop  offset="0.4416" style="stop-color:#4DAC50"/>
	<stop  offset="0.7071" style="stop-color:#4FA452"/>
	<stop  offset="0.9254" style="stop-color:#529655"/>
	<stop  offset="1" style="stop-color:#548F56"/>
</linearGradient>
<path fill="url(#SVGID_5_)" d="M71.1,198.7h2.3c0.6,0,1.1,0.5,1.1,1.1v2.3c0,0.6-0.5,1.1-1.1,1.1h-2.3c-0.6,0-1.1-0.5-1.1-1.1v-2.4
	C70.1,199,70.5,198.7,71.1,198.7z"/>
<linearGradient id="SVGID_6_" gradientUnits="userSpaceOnUse" x1="37.657" y1="2740.6001" x2="38.5454" y2="2740.6001" gradientTransform="matrix(4.898 0 0 -4.898 70.531 13602.4023)">
	<stop  offset="0" style="stop-color:#548F56"/>
	<stop  offset="7.463652e-02" style="stop-color:#529655"/>
	<stop  offset="0.2929" style="stop-color:#4FA452"/>
	<stop  offset="0.5584" style="stop-color:#4DAC50"/>
	<stop  offset="1" style="stop-color:#4CAF50"/>
</linearGradient>
<path fill="url(#SVGID_6_)" d="M255,177.7v2.6c0,0.5,0.4,0.8,0.8,0.8h2.6c0.5,0,0.8-0.4,0.8-0.8v-2.6c0-0.5-0.4-0.8-0.8-0.8h-2.6
	C255.4,176.9,255,177.3,255,177.7z M257.7,180.4h-1c-0.5,0-0.8-0.4-0.8-0.8v-1c0-0.5,0.4-0.8,0.8-0.8h1c0.5,0,0.8,0.4,0.8,0.8v1
	C258.5,179.9,258,180.4,257.7,180.4z"/>
<linearGradient id="SVGID_7_" gradientUnits="userSpaceOnUse" x1="35.8802" y1="2740.6001" x2="36.7686" y2="2740.6001" gradientTransform="matrix(4.898 0 0 -4.898 70.531 13602.4023)">
	<stop  offset="0" style="stop-color:#548F56"/>
	<stop  offset="7.463652e-02" style="stop-color:#529655"/>
	<stop  offset="0.2929" style="stop-color:#4FA452"/>
	<stop  offset="0.5584" style="stop-color:#4DAC50"/>
	<stop  offset="1" style="stop-color:#4CAF50"/>
</linearGradient>
<path fill="url(#SVGID_7_)" d="M246.2,177.7v2.6c0,0.5,0.4,0.8,0.8,0.8h2.6c0.5,0,0.8-0.4,0.8-0.8v-2.6c0-0.5-0.4-0.8-0.8-0.8h-2.6
	C246.6,176.9,246.2,177.3,246.2,177.7z M248.9,180.4h-1c-0.5,0-0.8-0.4-0.8-0.8v-1c0-0.5,0.4-0.8,0.8-0.8h1c0.5,0,0.8,0.4,0.8,0.8v1
	C249.7,179.9,249.4,180.4,248.9,180.4z"/>
<linearGradient id="SVGID_8_" gradientUnits="userSpaceOnUse" x1="20.333" y1="2742.3918" x2="21.2214" y2="2742.3918" gradientTransform="matrix(4.898 0 0 -4.898 70.531 13602.4023)">
	<stop  offset="0" style="stop-color:#548F56"/>
	<stop  offset="7.463652e-02" style="stop-color:#529655"/>
	<stop  offset="0.2929" style="stop-color:#4FA452"/>
	<stop  offset="0.5584" style="stop-color:#4DAC50"/>
	<stop  offset="1" style="stop-color:#4CAF50"/>
</linearGradient>
<path fill="url(#SVGID_8_)" d="M170.1,169v2.6c0,0.5,0.4,0.8,0.8,0.8h2.6c0.5,0,0.8-0.4,0.8-0.8V169c0-0.5-0.4-0.8-0.8-0.8H171
	C170.5,168.1,170.1,168.5,170.1,169z M172.8,171.6h-1c-0.5,0-0.8-0.4-0.8-0.8v-1c0-0.5,0.4-0.8,0.8-0.8h1c0.5,0,0.8,0.4,0.8,0.8v1
	C173.6,171.2,173.3,171.6,172.8,171.6z"/>
<linearGradient id="SVGID_9_" gradientUnits="userSpaceOnUse" x1="22.0956" y1="2740.6001" x2="22.984" y2="2740.6001" gradientTransform="matrix(4.898 0 0 -4.898 70.531 13602.4023)">
	<stop  offset="0" style="stop-color:#548F56"/>
	<stop  offset="7.463652e-02" style="stop-color:#529655"/>
	<stop  offset="0.2929" style="stop-color:#4FA452"/>
	<stop  offset="0.5584" style="stop-color:#4DAC50"/>
	<stop  offset="1" style="stop-color:#4CAF50"/>
</linearGradient>
<path fill="url(#SVGID_9_)" d="M178.8,177.7v2.6c0,0.5,0.4,0.8,0.8,0.8h2.6c0.5,0,0.8-0.4,0.8-0.8v-2.6c0-0.5-0.4-0.8-0.8-0.8h-2.6
	C179.1,176.9,178.8,177.3,178.8,177.7z M181.4,180.4h-1c-0.5,0-0.8-0.4-0.8-0.8v-1c0-0.5,0.4-0.8,0.8-0.8h1c0.5,0,0.8,0.4,0.8,0.8v1
	C182.3,179.9,181.9,180.4,181.4,180.4z"/>
<linearGradient id="SVGID_10_" gradientUnits="userSpaceOnUse" x1="18.5561" y1="2740.6001" x2="19.4445" y2="2740.6001" gradientTransform="matrix(4.898 0 0 -4.898 70.531 13602.4023)">
	<stop  offset="0" style="stop-color:#548F56"/>
	<stop  offset="7.463652e-02" style="stop-color:#529655"/>
	<stop  offset="0.2929" style="stop-color:#4FA452"/>
	<stop  offset="0.5584" style="stop-color:#4DAC50"/>
	<stop  offset="1" style="stop-color:#4CAF50"/>
</linearGradient>
<path fill="url(#SVGID_10_)" d="M161.5,177.7v2.6c0,0.5,0.4,0.8,0.8,0.8h2.6c0.5,0,0.8-0.4,0.8-0.8v-2.6c0-0.5-0.4-0.8-0.8-0.8h-2.6
	C161.8,176.9,161.5,177.3,161.5,177.7z M164,180.4h-1c-0.5,0-0.8-0.4-0.8-0.8v-1c0-0.5,0.4-0.8,0.8-0.8h1c0.5,0,0.8,0.4,0.8,0.8v1
	C165,179.9,164.5,180.4,164,180.4z"/>
<linearGradient id="SVGID_11_" gradientUnits="userSpaceOnUse" x1="11.5462" y1="2738.3909" x2="38.548" y2="2738.3909" gradientTransform="matrix(4.898 0 0 -4.898 70.531 13602.4023)">
	<stop  offset="0" style="stop-color:#548F56"/>
	<stop  offset="7.463652e-02" style="stop-color:#529655"/>
	<stop  offset="0.2929" style="stop-color:#4FA452"/>
	<stop  offset="0.5584" style="stop-color:#4DAC50"/>
	<stop  offset="1" style="stop-color:#4CAF50"/>
</linearGradient>
<path fill="url(#SVGID_11_)" d="M254.9,186.4v2.6c0,0.5-0.4,0.8-0.8,0.8h-62.3c-0.5,0-0.8-0.4-0.8-0.8v-2.6c0-0.5-0.4-0.8-0.8-0.8
	h-2.8c-0.5,0-0.8,0.4-0.8,0.8v2.6c0,0.5-0.4,0.8-0.8,0.8h-11.5c-0.5,0-0.8-0.4-0.8-0.8v-2.6c0-0.5-0.4-0.8-0.8-0.8h-2.8
	c-0.5,0-0.8,0.4-0.8,0.8v2.6c0,0.5-0.4,0.8-0.8,0.8h-11.5c-0.5,0-0.8-0.4-0.8-0.8v-2.6c0-0.5-0.4-0.8-0.8-0.8h-2.6
	c-0.5,0-0.8,0.4-0.8,0.8v2.6c0,0.5-0.4,0.8-0.8,0.8h-22.5c-0.5,0-0.8,0.4-0.8,0.8v2.6c0,0.5,0.4,0.8,0.8,0.8h130.6
	c0.5,0,0.8-0.4,0.8-0.8v-7c0-0.5-0.4-0.8-0.8-0.8h-2.8C255.2,185.5,254.9,185.9,254.9,186.4z M257.7,193.4H128.8
	c-0.5,0-0.8-0.4-0.8-0.8v-1c0-0.5,0.4-0.8,0.8-0.8h22.6c0.5,0,0.8-0.4,0.8-0.8v-2.6c0-0.5,0.4-0.8,0.8-0.8h1c0.5,0,0.8,0.4,0.8,0.8
	v2.6c0,0.5,0.4,0.8,0.8,0.8H169c0.5,0,0.8-0.4,0.8-0.8v-2.6c0-0.5,0.4-0.8,0.8-0.8h1c0.5,0,0.8,0.4,0.8,0.8v2.6
	c0,0.5,0.4,0.8,0.8,0.8h13.2c0.5,0,0.8-0.4,0.8-0.8v-2.6c0-0.5,0.4-0.8,0.8-0.8h1c0.5,0,0.8,0.4,0.8,0.8v2.6c0,0.5,0.4,0.8,0.8,0.8
	h64c0.5,0,0.8-0.4,0.8-0.8v-2.6c0-0.5,0.4-0.8,0.8-0.8h1c0.5,0,0.8,0.4,0.8,0.8v5.3C258.5,193,258,193.4,257.7,193.4z"/>
<linearGradient id="SVGID_12_" gradientUnits="userSpaceOnUse" x1="6.5632" y1="2764.9048" x2="10.1168" y2="2764.9048" gradientTransform="matrix(4.898 0 0 -4.898 70.531 13602.4023)">
	<stop  offset="0" style="stop-color:#4CAF50"/>
	<stop  offset="0.4416" style="stop-color:#4DAC50"/>
	<stop  offset="0.7071" style="stop-color:#4FA452"/>
	<stop  offset="0.9254" style="stop-color:#529655"/>
	<stop  offset="1" style="stop-color:#548F56"/>
</linearGradient>
<path fill="url(#SVGID_12_)" d="M118.8,120H104c-0.7,0-1.3-0.6-1.3-1.3V16.1c0-0.4,0.1-0.7,0.4-1l14.8-14.8c0.8-0.8,2.2-0.2,2.2,1
	v117.5C120.1,119.4,119.5,120,118.8,120z"/>
<linearGradient id="SVGID_13_" gradientUnits="userSpaceOnUse" x1="-0.5467" y1="2761.3579" x2="3.0069" y2="2761.3579" gradientTransform="matrix(4.898 0 0 -4.898 70.531 13602.4023)">
	<stop  offset="0" style="stop-color:#4CAF50"/>
	<stop  offset="0.4416" style="stop-color:#4DAC50"/>
	<stop  offset="0.7071" style="stop-color:#4FA452"/>
	<stop  offset="0.9254" style="stop-color:#529655"/>
	<stop  offset="1" style="stop-color:#548F56"/>
</linearGradient>
<path fill="url(#SVGID_13_)" d="M83.9,120H69.1c-0.7,0-1.3-0.6-1.3-1.3V50.9c0-0.4,0.1-0.7,0.4-1L83,35.1c0.8-0.8,2.2-0.2,2.2,1
	v82.6C85.2,119.4,84.6,120,83.9,120z"/>
<linearGradient id="SVGID_14_" gradientUnits="userSpaceOnUse" x1="-7.654" y1="2757.7986" x2="-4.1003" y2="2757.7986" gradientTransform="matrix(4.898 0 0 -4.898 70.531 13602.4023)">
	<stop  offset="0" style="stop-color:#4CAF50"/>
	<stop  offset="0.4416" style="stop-color:#4DAC50"/>
	<stop  offset="0.7071" style="stop-color:#4FA452"/>
	<stop  offset="0.9254" style="stop-color:#529655"/>
	<stop  offset="1" style="stop-color:#548F56"/>
</linearGradient>
<path fill="url(#SVGID_14_)" d="M49.2,120H34.4c-0.7,0-1.3-0.6-1.3-1.3V85.8c0-0.4,0.1-0.7,0.4-1L48.2,70c0.8-0.8,2.2-0.2,2.2,1
	v47.9C50.5,119.4,49.9,120,49.2,120z"/>
<linearGradient id="SVGID_15_" gradientUnits="userSpaceOnUse" x1="-14.3894" y1="2754.2393" x2="-11.2076" y2="2754.2393" gradientTransform="matrix(4.898 0 0 -4.898 70.531 13602.4023)">
	<stop  offset="0" style="stop-color:#4CAF50"/>
	<stop  offset="0.4416" style="stop-color:#4DAC50"/>
	<stop  offset="0.7071" style="stop-color:#4FA452"/>
	<stop  offset="0.9254" style="stop-color:#529655"/>
	<stop  offset="1" style="stop-color:#548F56"/>
</linearGradient>
<path fill="url(#SVGID_15_)" d="M14.3,120h-13c-1.2,0-1.7-1.4-1-2.2l13-13c0.8-0.8,2.2-0.2,2.2,1v13C15.6,119.4,15,120,14.3,120z"/>
<g>
	
		<linearGradient id="SVGID_16_" gradientUnits="userSpaceOnUse" x1="13.3136" y1="2764.7302" x2="17.578" y2="2764.7302" gradientTransform="matrix(4.898 0 0 -4.898 70.531 13602.4023)">
		<stop  offset="0" style="stop-color:#548F56"/>
		<stop  offset="7.463652e-02" style="stop-color:#529655"/>
		<stop  offset="0.2929" style="stop-color:#4FA452"/>
		<stop  offset="0.5584" style="stop-color:#4DAC50"/>
		<stop  offset="1" style="stop-color:#4CAF50"/>
	</linearGradient>
	<path fill="url(#SVGID_16_)" d="M153.7,121.7h-14.9c-1.7,0-3-1.3-3-3V3c0-1.2,0.7-2.3,1.9-2.8c1.1-0.5,2.4-0.2,3.2,0.6l14.8,14.7
		c0.6,0.6,0.8,1.3,0.8,2.2v101.1C156.7,120.4,155.2,121.7,153.7,121.7z M139.2,118.2h13.9V17.8L139.2,4.1V118.2z"/>
</g>
<g>
	
		<linearGradient id="SVGID_17_" gradientUnits="userSpaceOnUse" x1="20.4218" y1="2761.1833" x2="24.6862" y2="2761.1833" gradientTransform="matrix(4.898 0 0 -4.898 70.531 13602.4023)">
		<stop  offset="0" style="stop-color:#548F56"/>
		<stop  offset="7.463652e-02" style="stop-color:#529655"/>
		<stop  offset="0.2929" style="stop-color:#4FA452"/>
		<stop  offset="0.5584" style="stop-color:#4DAC50"/>
		<stop  offset="1" style="stop-color:#4CAF50"/>
	</linearGradient>
	<path fill="url(#SVGID_17_)" d="M188.4,121.7h-14.8c-1.7,0-3-1.3-3-3V37.8c0-1.2,0.7-2.3,1.9-2.8c1.1-0.5,2.4-0.2,3.2,0.6
		l14.8,14.5c0.6,0.6,0.8,1.3,0.8,2v66.4C191.4,120.4,190.1,121.7,188.4,121.7z M174.1,118.3H188V52.5l-13.9-13.6V118.3z"/>
</g>
<g>
	
		<linearGradient id="SVGID_18_" gradientUnits="userSpaceOnUse" x1="27.5291" y1="2757.6362" x2="31.7935" y2="2757.6362" gradientTransform="matrix(4.898 0 0 -4.898 70.531 13602.4023)">
		<stop  offset="0" style="stop-color:#548F56"/>
		<stop  offset="7.463652e-02" style="stop-color:#529655"/>
		<stop  offset="0.2929" style="stop-color:#4FA452"/>
		<stop  offset="0.5584" style="stop-color:#4DAC50"/>
		<stop  offset="1" style="stop-color:#4CAF50"/>
	</linearGradient>
	<path fill="url(#SVGID_18_)" d="M223.3,121.7h-14.8c-1.7,0-3-1.3-3-2.9V72.5c0-1.2,0.7-2.3,1.9-2.8c1.1-0.5,2.4-0.2,3.2,0.6
		l14.7,14.4c0.6,0.6,0.8,1.3,0.8,2v31.9C226.3,120.4,225,121.7,223.3,121.7z M208.8,118.3h13.9V87.1l-13.9-13.5V118.3z"/>
</g>
<g>
	
		<linearGradient id="SVGID_19_" gradientUnits="userSpaceOnUse" x1="34.6364" y1="2754.0769" x2="38.5286" y2="2754.0769" gradientTransform="matrix(4.898 0 0 -4.898 70.531 13602.4023)">
		<stop  offset="0" style="stop-color:#548F56"/>
		<stop  offset="7.463652e-02" style="stop-color:#529655"/>
		<stop  offset="0.2929" style="stop-color:#4FA452"/>
		<stop  offset="0.5584" style="stop-color:#4DAC50"/>
		<stop  offset="1" style="stop-color:#4CAF50"/>
	</linearGradient>
	<path fill="url(#SVGID_19_)" d="M256.2,121.7h-13c-1.7,0-3-1.2-3-2.8v-11.8c0-1.1,0.7-2.2,1.9-2.5c1.1-0.5,2.4-0.2,3.2,0.6l13,11.8
		c0.8,0.8,1.1,1.9,0.6,3C258.5,121,257.4,121.7,256.2,121.7z M243.7,118.6h11.4l-11.4-10.3V118.6z"/>
</g>
<g>
	
		<linearGradient id="SVGID_20_" gradientUnits="userSpaceOnUse" x1="13.6237" y1="2747.3259" x2="17.2662" y2="2747.3259" gradientTransform="matrix(4.898 0 0 -4.898 70.531 13602.4023)">
		<stop  offset="0" style="stop-color:#548F56"/>
		<stop  offset="7.463652e-02" style="stop-color:#529655"/>
		<stop  offset="0.2929" style="stop-color:#4FA452"/>
		<stop  offset="0.5584" style="stop-color:#4DAC50"/>
		<stop  offset="1" style="stop-color:#4CAF50"/>
	</linearGradient>
	<path fill="url(#SVGID_20_)" d="M150,137.2h-11.9c-0.6,0-0.8,0.4-0.8,1v16c0,0.6,0.2,0.8,0.8,0.8h2.9c0.5,0,0.8-0.4,0.8-0.8V150
		h8.3c3.5,0,5-1.7,5-5.4v-2C155.1,138.9,153.5,137.2,150,137.2z M153.8,144.5c0,2.9-1.1,4.1-3.7,4.1h-9.4c-0.1,0-0.2,0.1-0.2,0.2
		v4.9h-1.8v-15.3h11.5c2.6,0,3.7,1.1,3.7,4.1v1.9H153.8z"/>
	
		<linearGradient id="SVGID_21_" gradientUnits="userSpaceOnUse" x1="14.2651" y1="2747.8291" x2="16.6247" y2="2747.8291" gradientTransform="matrix(4.898 0 0 -4.898 70.531 13602.4023)">
		<stop  offset="0" style="stop-color:#548F56"/>
		<stop  offset="7.463652e-02" style="stop-color:#529655"/>
		<stop  offset="0.2929" style="stop-color:#4FA452"/>
		<stop  offset="0.5584" style="stop-color:#4DAC50"/>
		<stop  offset="1" style="stop-color:#4CAF50"/>
	</linearGradient>
	<path fill="url(#SVGID_21_)" d="M149.2,140.3h-7.5c-0.8,0-1.3,0.6-1.3,1.4v4.9c0,0.1,0.1,0.2,0.2,0.2h8.7c1.8,0,2.6-1,2.6-2.9v-1
		C152,141.3,151,140.3,149.2,140.3z M150.6,144.1c0,1.1-0.4,1.6-1.4,1.6h-7.6v-3.8v-0.1h7.5c1.1,0,1.4,0.4,1.4,1.4v1H150.6z"/>
</g>
<g>
	
		<linearGradient id="SVGID_22_" gradientUnits="userSpaceOnUse" x1="20.731" y1="2747.3013" x2="24.3735" y2="2747.3013" gradientTransform="matrix(4.898 0 0 -4.898 70.531 13602.4023)">
		<stop  offset="0" style="stop-color:#548F56"/>
		<stop  offset="7.463652e-02" style="stop-color:#529655"/>
		<stop  offset="0.2929" style="stop-color:#4FA452"/>
		<stop  offset="0.5584" style="stop-color:#4DAC50"/>
		<stop  offset="1" style="stop-color:#4CAF50"/>
	</linearGradient>
	<path fill="url(#SVGID_22_)" d="M178.9,141.8h10.2c0.4,0,0.8-0.1,0.8-0.8v-2.8c0-0.6-0.2-0.8-0.8-0.8h-10.2c-4.9,0-6.7,1.9-6.7,6.7
		v4.3c0,4.9,1.9,6.7,6.7,6.7h10.2c0.5,0,0.8-0.4,0.8-0.8v-2.8c0-0.7-0.5-0.8-0.8-0.8h-10.2c-1.8,0-2.3-0.5-2.3-2.5H189
		c0.4,0,0.8-0.1,0.8-0.8V145c0-0.7-0.5-0.8-0.8-0.8h-12.4C176.6,142.1,177.1,141.8,178.9,141.8z M175.5,145.4h13v1.4h-13
		c-0.1,0-0.2,0.1-0.2,0.2v0.8c0,2.4,0.6,4,3.6,4h9.6v1.9h-9.7c-4.2,0-5.5-1.3-5.5-5.5v-4.3c0-4.1,1.3-5.5,5.5-5.5h9.7v1.9h-9.6
		c-2.6,0-3.6,1.1-3.6,3.8v0.8C175.3,145.3,175.4,145.4,175.5,145.4z"/>
</g>
<g>
	
		<linearGradient id="SVGID_23_" gradientUnits="userSpaceOnUse" x1="27.8383" y1="2747.3259" x2="31.4806" y2="2747.3259" gradientTransform="matrix(4.898 0 0 -4.898 70.531 13602.4023)">
		<stop  offset="0" style="stop-color:#548F56"/>
		<stop  offset="7.463652e-02" style="stop-color:#529655"/>
		<stop  offset="0.2929" style="stop-color:#4FA452"/>
		<stop  offset="0.5584" style="stop-color:#4DAC50"/>
		<stop  offset="1" style="stop-color:#4CAF50"/>
	</linearGradient>
	<path fill="url(#SVGID_23_)" d="M224.6,154l-5.7-14.5c-0.7-1.7-1.3-2.3-2.6-2.3H215c-1.1,0-1.8,0.7-2.4,2.3l-5.7,14.5
		c-0.1,0.4-0.1,0.6,0,0.7c0.1,0.1,0.2,0.2,0.5,0.2h2.9c0.4,0,0.6-0.1,0.7-0.5l1.1-2.8h7.6l1.1,2.8c0.1,0.2,0.2,0.5,0.7,0.5h2.8
		c0.2,0,0.4-0.1,0.5-0.2C224.7,154.6,224.7,154.4,224.6,154z M221.8,153.8l-1.2-3.1c0-0.1-0.1-0.1-0.2-0.1h-9.1
		c-0.1,0-0.1,0.1-0.2,0.1l-1.2,3.1h-1.3l5.3-13.7c0.6-1.4,1-1.4,1.2-1.4h1.3c0.5,0,0.8,0,1.4,1.4l5.4,13.7H221.8z"/>
	
		<linearGradient id="SVGID_24_" gradientUnits="userSpaceOnUse" x1="28.8143" y1="2747.5591" x2="30.5118" y2="2747.5591" gradientTransform="matrix(4.898 0 0 -4.898 70.531 13602.4023)">
		<stop  offset="0" style="stop-color:#548F56"/>
		<stop  offset="7.463652e-02" style="stop-color:#529655"/>
		<stop  offset="0.2929" style="stop-color:#4FA452"/>
		<stop  offset="0.5584" style="stop-color:#4DAC50"/>
		<stop  offset="1" style="stop-color:#4CAF50"/>
	</linearGradient>
	<path fill="url(#SVGID_24_)" d="M219.9,149l-2.9-7.6l0,0c-0.4-0.7-1-0.8-1.2-0.8h-0.1c-0.5,0-0.8,0.2-1.2,0.7l-2.9,7.7
		c0,0.1,0,0.1,0,0.2c0,0.1,0.1,0.1,0.1,0.1h7.9c0.1,0,0.1,0,0.1-0.1C220,149.1,220,149,219.9,149z M213.4,147.9l2.3-6v-0.1l0,0l0,0
		l2.3,6.1H213.4z"/>
</g>
<g>
	
		<linearGradient id="SVGID_25_" gradientUnits="userSpaceOnUse" x1="34.942" y1="2747.3137" x2="38.5915" y2="2747.3137" gradientTransform="matrix(4.898 0 0 -4.898 70.531 13602.4023)">
		<stop  offset="0" style="stop-color:#548F56"/>
		<stop  offset="7.463652e-02" style="stop-color:#529655"/>
		<stop  offset="0.2929" style="stop-color:#4FA452"/>
		<stop  offset="0.5584" style="stop-color:#4DAC50"/>
		<stop  offset="1" style="stop-color:#4CAF50"/>
	</linearGradient>
	<path fill="url(#SVGID_25_)" d="M259.5,153.9l-4.4-6.4c-0.5-0.6-1-1.2-1.4-1.7c0.4-0.4,0.6-0.8,1-1.3l4.3-6.4
		c0.1-0.2,0.1-0.5,0-0.7c-0.1-0.2-0.4-0.2-0.6-0.2h-3.4c-0.5,0-0.7,0.1-1,0.5l-3.7,5.7c-0.5,0.7-0.7,0.8-1.8,0.8h-2.5v-6
		c0-0.5-0.2-0.8-0.8-0.8h-2.9c-0.5,0-0.8,0.4-0.8,0.8v16.1c0,0.6,0.2,0.8,0.8,0.8h2.9c0.5,0,0.8-0.4,0.8-0.8v-6.4h2.8
		c1.1,0,1.3,0.2,1.8,0.8l4,5.9c0.2,0.4,0.5,0.5,0.8,0.5h3.4c0.2,0,0.5-0.1,0.6-0.4C259.6,154.4,259.6,154.2,259.5,153.9z
		 M255.6,153.8l-3.8-5.8c-0.7-1.1-1.4-1.4-2.9-1.4H245c-0.1,0-0.2,0.1-0.2,0.2v6.9H243v-15.3h1.8v6.7c0,0.1,0.1,0.2,0.2,0.2h3.6
		c1.3,0,2-0.2,2.9-1.4l3.6-5.5h1.9l-3.6,5.3c-0.4,0.6-0.7,1-1,1.3l-0.7,0.7l-0.1,0.1c0,0.1,0,0.1,0.1,0.1l0.8,0.6
		c0.4,0.2,0.8,0.7,1.3,1.6l3.7,5.4h-2V153.8z"/>
</g>
<linearGradient id="SVGID_26_" gradientUnits="userSpaceOnUse" x1="-14.3894" y1="2747.3381" x2="-11.2076" y2="2747.3381" gradientTransform="matrix(4.898 0 0 -4.898 70.531 13602.4023)">
	<stop  offset="0" style="stop-color:#4CAF50"/>
	<stop  offset="0.4416" style="stop-color:#4DAC50"/>
	<stop  offset="0.7071" style="stop-color:#4FA452"/>
	<stop  offset="0.9254" style="stop-color:#529655"/>
	<stop  offset="1" style="stop-color:#548F56"/>
</linearGradient>
<path fill="url(#SVGID_26_)" d="M15.1,137.5c0.4,0,0.5,0.2,0.5,0.6v2.9c0,0.5-0.1,0.6-0.5,0.6H9.5V154c0,0.5-0.1,0.6-0.5,0.6H6.6
	c-0.4,0-0.5-0.2-0.5-0.6v-12.5H0.5c-0.4,0-0.5-0.2-0.5-0.6v-2.9c0-0.5,0.1-0.6,0.5-0.6H15.1z"/>
<linearGradient id="SVGID_27_" gradientUnits="userSpaceOnUse" x1="-7.6251" y1="2747.375" x2="-4.123" y2="2747.375" gradientTransform="matrix(4.898 0 0 -4.898 70.531 13602.4023)">
	<stop  offset="0" style="stop-color:#4CAF50"/>
	<stop  offset="0.4416" style="stop-color:#4DAC50"/>
	<stop  offset="0.7071" style="stop-color:#4FA452"/>
	<stop  offset="0.9254" style="stop-color:#529655"/>
	<stop  offset="1" style="stop-color:#548F56"/>
</linearGradient>
<path fill="url(#SVGID_27_)" d="M49.8,137.5c0.4,0,0.6,0.2,0.6,0.6v2.8c0,0.5-0.2,0.7-0.6,0.7h-10c-1.9,0-2.5,0.6-2.5,2.8h12.4
	c0.4,0,0.6,0.2,0.6,0.6v2.3c0,0.5-0.2,0.6-0.6,0.6H37.3c0,2.3,0.5,2.9,2.5,2.9h10c0.4,0,0.6,0.2,0.6,0.6v2.8c0,0.5-0.2,0.6-0.6,0.6
	H39.7c-4.7,0-6.5-1.8-6.5-6.6v-4.3c0-4.8,1.8-6.6,6.5-6.6h10.1V137.5z"/>
<linearGradient id="SVGID_28_" gradientUnits="userSpaceOnUse" x1="-0.5467" y1="2747.3997" x2="3.0069" y2="2747.3997" gradientTransform="matrix(4.898 0 0 -4.898 70.531 13602.4023)">
	<stop  offset="0" style="stop-color:#4CAF50"/>
	<stop  offset="0.4416" style="stop-color:#4DAC50"/>
	<stop  offset="0.7071" style="stop-color:#4FA452"/>
	<stop  offset="0.9254" style="stop-color:#529655"/>
	<stop  offset="1" style="stop-color:#548F56"/>
</linearGradient>
<path fill="url(#SVGID_28_)" d="M84.6,137.5c0.4,0,0.6,0.2,0.6,0.6v2.9c0,0.5-0.2,0.6-0.6,0.6H74.4c-2,0-2.5,0.6-2.5,2.8v3.4
	c0,2.3,0.5,2.8,2.5,2.8h10.2c0.4,0,0.6,0.2,0.6,0.6v2.9c0,0.5-0.2,0.6-0.6,0.6H74.3c-4.7,0-6.5-1.8-6.5-6.6v-4.3
	c0-4.8,1.8-6.6,6.5-6.6h10.3V137.5z"/>
<linearGradient id="SVGID_29_" gradientUnits="userSpaceOnUse" x1="6.5632" y1="2747.3259" x2="10.1147" y2="2747.3259" gradientTransform="matrix(4.898 0 0 -4.898 70.531 13602.4023)">
	<stop  offset="0" style="stop-color:#4CAF50"/>
	<stop  offset="0.4416" style="stop-color:#4DAC50"/>
	<stop  offset="0.7071" style="stop-color:#4FA452"/>
	<stop  offset="0.9254" style="stop-color:#529655"/>
	<stop  offset="1" style="stop-color:#548F56"/>
</linearGradient>
<path fill="url(#SVGID_29_)" d="M106.2,137.5c0.4,0,0.6,0.2,0.6,0.6v6.1h9.3v-6.1c0-0.5,0.2-0.6,0.6-0.6h2.9c0.4,0,0.6,0.2,0.6,0.6
	v16.1c0,0.5-0.2,0.6-0.6,0.6h-2.9c-0.4,0-0.6-0.2-0.6-0.6v-6.3h-9.3v6.3c0,0.5-0.2,0.6-0.6,0.6h-2.9c-0.4,0-0.6-0.2-0.6-0.6v-16.1
	c0-0.5,0.2-0.6,0.6-0.6H106.2z"/>
</svg>
